<mxfile host="65bd71144e">
    <diagram id="EnewOrnuE5fF5D6Tr6lq" name="第 1 页">
        <mxGraphModel dx="901" dy="1920" grid="1" gridSize="10" guides="1" tooltips="1" connect="1" arrows="1" fold="1" page="1" pageScale="1" pageWidth="827" pageHeight="1169" math="0" shadow="0">
            <root>
                <mxCell id="0"/>
                <mxCell id="1" parent="0"/>
                <mxCell id="GFnHwDU9ITr71qzAtSJz-11" value="" style="whiteSpace=wrap;html=1;" parent="1" vertex="1">
                    <mxGeometry x="50" y="60" width="660" height="120" as="geometry"/>
                </mxCell>
                <mxCell id="GFnHwDU9ITr71qzAtSJz-15" style="edgeStyle=orthogonalEdgeStyle;rounded=0;orthogonalLoop=1;jettySize=auto;html=1;entryX=0.5;entryY=1;entryDx=0;entryDy=0;" parent="1" source="GFnHwDU9ITr71qzAtSJz-7" target="GFnHwDU9ITr71qzAtSJz-11" edge="1">
                    <mxGeometry relative="1" as="geometry"/>
                </mxCell>
                <mxCell id="GFnHwDU9ITr71qzAtSJz-7" value="" style="whiteSpace=wrap;html=1;" parent="1" vertex="1">
                    <mxGeometry x="60" y="250" width="630" height="220" as="geometry"/>
                </mxCell>
                <mxCell id="GFnHwDU9ITr71qzAtSJz-1" value="ctx" style="whiteSpace=wrap;html=1;" parent="1" vertex="1">
                    <mxGeometry x="150" y="290" width="120" height="60" as="geometry"/>
                </mxCell>
                <mxCell id="GFnHwDU9ITr71qzAtSJz-2" value="theme variable" style="whiteSpace=wrap;html=1;" parent="1" vertex="1">
                    <mxGeometry x="294" y="290" width="120" height="60" as="geometry"/>
                </mxCell>
                <mxCell id="GFnHwDU9ITr71qzAtSJz-3" value="Button&lt;br&gt;jsx/less" style="whiteSpace=wrap;html=1;" parent="1" vertex="1">
                    <mxGeometry x="150" y="370" width="120" height="60" as="geometry"/>
                </mxCell>
                <mxCell id="GFnHwDU9ITr71qzAtSJz-4" value="Table" style="whiteSpace=wrap;html=1;" parent="1" vertex="1">
                    <mxGeometry x="294" y="370" width="120" height="60" as="geometry"/>
                </mxCell>
                <mxCell id="GFnHwDU9ITr71qzAtSJz-5" value="Doc" style="whiteSpace=wrap;html=1;" parent="1" vertex="1">
                    <mxGeometry x="520" y="370" width="120" height="60" as="geometry"/>
                </mxCell>
                <mxCell id="GFnHwDU9ITr71qzAtSJz-6" value="build/start" style="whiteSpace=wrap;html=1;" parent="1" vertex="1">
                    <mxGeometry x="520" y="290" width="120" height="60" as="geometry"/>
                </mxCell>
                <mxCell id="GFnHwDU9ITr71qzAtSJz-8" value="antd" style="text;html=1;align=center;verticalAlign=middle;resizable=0;points=[];autosize=1;" parent="1" vertex="1">
                    <mxGeometry x="30" y="220" width="40" height="20" as="geometry"/>
                </mxCell>
                <mxCell id="GFnHwDU9ITr71qzAtSJz-9" value="theme" style="whiteSpace=wrap;html=1;" parent="1" vertex="1">
                    <mxGeometry x="70" y="90" width="120" height="60" as="geometry"/>
                </mxCell>
                <mxCell id="GFnHwDU9ITr71qzAtSJz-10" value="button" style="whiteSpace=wrap;html=1;" parent="1" vertex="1">
                    <mxGeometry x="230" y="90" width="120" height="60" as="geometry"/>
                </mxCell>
                <mxCell id="GFnHwDU9ITr71qzAtSJz-12" value="find-react-theme-xxx" style="text;html=1;align=center;verticalAlign=middle;resizable=0;points=[];autosize=1;" parent="1" vertex="1">
                    <mxGeometry x="720" y="110" width="120" height="20" as="geometry"/>
                </mxCell>
                <mxCell id="GFnHwDU9ITr71qzAtSJz-16" value="3.x -&amp;gt; 4.x" style="text;html=1;align=center;verticalAlign=middle;resizable=0;points=[];autosize=1;" parent="1" vertex="1">
                    <mxGeometry x="395" y="220" width="70" height="20" as="geometry"/>
                </mxCell>
                <mxCell id="GFnHwDU9ITr71qzAtSJz-17" value="莫奈" style="whiteSpace=wrap;html=1;" parent="1" vertex="1">
                    <mxGeometry x="170" y="-490" width="140" height="120" as="geometry"/>
                </mxCell>
                <mxCell id="GFnHwDU9ITr71qzAtSJz-18" value="直通车" style="whiteSpace=wrap;html=1;" parent="1" vertex="1">
                    <mxGeometry x="350" y="-490" width="140" height="120" as="geometry"/>
                </mxCell>
                <mxCell id="GFnHwDU9ITr71qzAtSJz-21" value="variable.css" style="whiteSpace=wrap;html=1;" parent="1" vertex="1">
                    <mxGeometry x="180" y="-400" width="120" height="60" as="geometry"/>
                </mxCell>
                <mxCell id="GFnHwDU9ITr71qzAtSJz-22" value="variable.css" style="whiteSpace=wrap;html=1;" parent="1" vertex="1">
                    <mxGeometry x="360" y="-400" width="120" height="60" as="geometry"/>
                </mxCell>
                <mxCell id="GFnHwDU9ITr71qzAtSJz-23" value="直通车" style="whiteSpace=wrap;html=1;" parent="1" vertex="1">
                    <mxGeometry x="534" y="-490" width="140" height="120" as="geometry"/>
                </mxCell>
                <mxCell id="GFnHwDU9ITr71qzAtSJz-24" value="variable.css" style="whiteSpace=wrap;html=1;" parent="1" vertex="1">
                    <mxGeometry x="544" y="-400" width="120" height="60" as="geometry"/>
                </mxCell>
                <mxCell id="GFnHwDU9ITr71qzAtSJz-26" value="ant.design-customize" style="text;html=1;align=center;verticalAlign=middle;resizable=0;points=[];autosize=1;" parent="1" vertex="1">
                    <mxGeometry x="715" y="60" width="130" height="20" as="geometry"/>
                </mxCell>
                <mxCell id="GFnHwDU9ITr71qzAtSJz-27" value="table" style="whiteSpace=wrap;html=1;" parent="1" vertex="1">
                    <mxGeometry x="390" y="90" width="120" height="60" as="geometry"/>
                </mxCell>
                <mxCell id="GFnHwDU9ITr71qzAtSJz-28" value="业务工程&lt;br&gt;&lt;br&gt;{&lt;br&gt;&amp;nbsp;import: 'find-react-cityos',&lt;br&gt;style:&amp;nbsp;&amp;nbsp;true&amp;nbsp; or&amp;nbsp; find-react-cityos/xx/less&lt;br&gt;}&lt;br&gt;&lt;br&gt;import { Button } from 'find-react-cityos'" style="whiteSpace=wrap;html=1;align=left;" parent="1" vertex="1">
                    <mxGeometry x="309" y="-170" width="245" height="160" as="geometry"/>
                </mxCell>
            </root>
        </mxGraphModel>
    </diagram>
</mxfile>